<?xml version="1.0" standalone="no"?><!DOCTYPE svg PUBLIC "-//W3C//DTD SVG 1.1//EN" "http://www.w3.org/Graphics/SVG/1.1/DTD/svg11.dtd"><svg t="1776763996162" class="icon" viewBox="0 0 1024 1024" version="1.1" xmlns="http://www.w3.org/2000/svg" p-id="4903" xmlns:xlink="http://www.w3.org/1999/xlink" width="200" height="200"><path d="M512 960A448 448 0 1 0 512 64a448 448 0 0 0 0 896z m0 64A512 512 0 1 1 512 0a512 512 0 0 1 0 1024z" fill="#ffffff" p-id="4904"></path><path d="M448 422.656v217.088L621.632 531.2 448 422.656z m14.336 283.584A51.2 51.2 0 0 1 384 662.848V399.552a51.2 51.2 0 0 1 78.336-43.392l210.56 131.648a51.2 51.2 0 0 1 0 86.784l-210.56 131.648z" fill="#ffffff" p-id="4905"></path></svg>